<svg version="1.0" xmlns="http://www.w3.org/2000/svg" width="512.000000pt" height="512.000000pt" viewBox="0 0 512.000000 512.000000" preserveAspectRatio="xMidYMid meet">
	<g transform="translate(0.000000,512.000000) scale(0.100000,-0.100000)" stroke="none">
		<path d="M466 4709 c-62 -15 -153 -68 -197 -116 -22 -24 -55 -74 -72 -111
l-32 -67 0 -1856 0 -1855 37 -76 c45 -91 103 -147 196 -191 l67 -32 2096 0
2095 0 76 37 c91 45 147 103 191 196 l32 67 0 1615 0 1615 -32 67 c-44 93
-100 151 -191 196 l-76 37 -1127 3 -1126 2 -5 91 c-5 78 -11 100 -42 163 -43
88 -102 146 -194 189 l-67 32 -795 2 c-459 1 -811 -3 -834 -8z m1608 -161 c55
-16 138 -99 154 -154 8 -29 12 -146 12 -393 l0 -352 25 -24 24 -25 1152 0
c875 0 1162 -3 1193 -12 55 -16 138 -99 154 -154 17 -60 17 -2648 0 -2708 -16
-55 -99 -138 -154 -154 -60 -18 -4088 -18 -4148 0 -55 16 -138 99 -154 154
-18 60 -18 3608 0 3668 15 51 99 137 148 153 52 16 1538 17 1594 1z m2560
-480 c55 -16 138 -99 154 -154 7 -23 12 -84 12 -136 l0 -94 -72 35 -72 36
-1128 3 -1128 2 0 160 0 160 1096 0 c832 0 1107 -3 1138 -12z" />
		<path d="M2466 3029 c-64 -15 -155 -70 -198 -118 -131 -149 -140 -361 -22
-516 20 -25 34 -48 32 -49 -1 -2 -37 -20 -78 -42 -102 -53 -249 -198 -314
-309 -56 -97 -104 -240 -119 -356 l-11 -86 37 -51 c21 -28 73 -83 116 -124
382 -357 981 -339 1344 41 106 111 113 129 99 231 -15 106 -63 246 -115 340
-60 108 -217 263 -317 314 -41 22 -76 40 -78 41 -2 2 15 27 38 56 113 148 104
367 -21 503 -27 30 -69 66 -92 79 -87 51 -203 69 -301 46z m176 -165 c49 -16
109 -69 136 -119 23 -41 23 -169 0 -211 -45 -83 -124 -129 -218 -129 -138 1
-234 98 -234 235 0 168 156 279 316 224z m40 -639 c245 -51 445 -270 502 -549
l16 -77 -36 -45 c-161 -196 -473 -309 -730 -263 -185 32 -375 137 -479 265
l-35 43 16 78 c32 158 118 312 226 407 62 55 211 131 283 144 75 14 162 13
237 -3z" />
	</g>
</svg>
